<svg width="1584" height="396" viewBox="0 0 1584 396" fill="none" xmlns="http://www.w3.org/2000/svg">
<rect width="1584" height="396" fill="#F5F5F5"/>
<g id="Awesome banner" clip-path="url(#clip0_0_1)">
<rect width="1584" height="396" fill="url(#paint0_linear_0_1)"/>
<ellipse id="Ellipse 2" cx="323" cy="64" rx="285" ry="288" fill="url(#paint1_linear_0_1)" fill-opacity="0.1"/>
<g id="copyright">
<path d="M75.95 334.52L72.30 334.52L72.30 311.16L77.20 311.16L83.70 330.04Q83.60 329.02 83.50 327.62Q83.41 326.23 83.33 324.79Q83.25 323.35 83.25 322.23L83.25 311.16L86.90 311.16L86.90 334.52L82 334.52L75.57 315.64Q75.63 316.57 75.73 317.88Q75.82 319.19 75.89 320.57Q75.95 321.94 75.95 323.10L75.95 334.52M98.80 334.84Q96.46 334.84 94.67 333.96Q92.88 333.08 91.89 331.53Q90.90 329.98 90.90 327.93Q90.90 325.78 92.13 324.18Q93.36 322.58 95.34 322.17L95.34 322.10Q93.65 321.75 92.61 320.38Q91.57 319 91.57 317.11Q91.57 315.26 92.48 313.85Q93.39 312.44 95.02 311.64Q96.66 310.84 98.80 310.84Q100.94 310.84 102.59 311.64Q104.24 312.44 105.15 313.85Q106.06 315.26 106.06 317.11Q106.06 319 105.01 320.38Q103.95 321.75 102.26 322.10L102.26 322.17Q104.24 322.58 105.47 324.18Q106.70 325.78 106.70 327.93Q106.70 329.98 105.71 331.53Q104.72 333.08 102.93 333.96Q101.14 334.84 98.80 334.84M98.80 320.73Q100.30 320.73 101.23 319.82Q102.16 318.90 102.16 317.46Q102.16 315.99 101.23 315.08Q100.30 314.17 98.80 314.17Q97.30 314.17 96.37 315.08Q95.44 315.99 95.44 317.46Q95.44 318.90 96.37 319.82Q97.30 320.73 98.80 320.73M98.80 331.45Q100.56 331.45 101.68 330.42Q102.80 329.40 102.80 327.74Q102.80 326.04 101.68 325Q100.56 323.96 98.80 323.96Q97.04 323.96 95.92 325Q94.80 326.04 94.80 327.74Q94.80 329.40 95.92 330.42Q97.04 331.45 98.80 331.45M114.35 334.52L110.70 334.52L110.70 311.16L115.60 311.16L122.10 330.04Q122 329.02 121.90 327.62Q121.81 326.23 121.73 324.79Q121.65 323.35 121.65 322.23L121.65 311.16L125.30 311.16L125.30 334.52L120.40 334.52L113.97 315.64Q114.03 316.57 114.13 317.88Q114.22 319.19 114.29 320.57Q114.35 321.94 114.35 323.10" fill="white" fill-opacity="0.9"/>
<path d="M161.48 325.24L151.24 325.24L151.24 322.68L161.48 322.68" fill="white" fill-opacity="0.9"/>
<path d="M195.02 334.84Q191.82 334.84 189.96 333.05Q188.11 331.26 188.11 328.12L188.11 317.56Q188.11 314.42 189.96 312.63Q191.82 310.84 195.02 310.84Q198.15 310.84 200.01 312.65Q201.87 314.46 201.87 317.56L198.99 317.56Q198.99 315.58 197.95 314.50Q196.91 313.43 195.02 313.43Q193.13 313.43 192.06 314.50Q190.99 315.58 190.99 317.56L190.99 328.12Q190.99 330.10 192.06 331.18Q193.13 332.25 195.02 332.25Q196.91 332.25 197.95 331.18Q198.99 330.10 198.99 328.12L201.87 328.12Q201.87 331.22 200.01 333.03Q198.15 334.84 195.02 334.84" fill="white" fill-opacity="0.9"/>
<path d="M213.96 334.84Q210.83 334.84 209 333.02Q207.18 331.19 207.18 327.80L207.18 317.88Q207.18 314.49 209 312.66Q210.83 310.84 213.96 310.84Q217.10 310.84 218.92 312.66Q220.75 314.49 220.75 317.85L220.75 327.80Q220.75 331.19 218.92 333.02Q217.10 334.84 213.96 334.84M213.96 332.25Q215.85 332.25 216.86 331.18Q217.87 330.10 217.87 328.12L217.87 317.56Q217.87 315.58 216.86 314.50Q215.85 313.43 213.96 313.43Q212.11 313.43 211.08 314.50Q210.06 315.58 210.06 317.56L210.06 328.12Q210.06 330.10 211.08 331.18Q212.11 332.25 213.96 332.25" fill="white" fill-opacity="0.9"/>
<path d="M228.65 334.52L225.87 334.52L225.87 311.16L230.12 311.16L233.10 321.27L236.20 311.16L240.46 311.16L240.46 334.52L237.67 334.52L237.67 323.48Q237.67 321.91 237.72 319.88Q237.77 317.85 237.87 315.77Q237.96 313.69 238.09 312.02L234.31 324.09L231.82 324.09L228.20 312.31Q228.46 314.68 228.55 317.50Q228.65 320.31 228.65 323.48" fill="white" fill-opacity="0.9"/>
<path d="M247.85 334.52L245.07 334.52L245.07 311.16L249.32 311.16L252.30 321.27L255.40 311.16L259.66 311.16L259.66 334.52L256.87 334.52L256.87 323.48Q256.87 321.91 256.92 319.88Q256.97 317.85 257.07 315.77Q257.16 313.69 257.29 312.02L253.51 324.09L251.02 324.09L247.40 312.31Q247.66 314.68 247.75 317.50Q247.85 320.31 247.85 323.48" fill="white" fill-opacity="0.9"/>
<path d="M271.56 334.84Q268.30 334.84 266.57 333.03Q264.84 331.22 264.84 328.12L264.84 311.16L267.72 311.16L267.72 328.12Q267.72 330.04 268.67 331.16Q269.61 332.28 271.56 332.28Q273.48 332.28 274.44 331.16Q275.40 330.04 275.40 328.12L275.40 311.16L278.28 311.16L278.28 328.12Q278.28 331.26 276.57 333.05Q274.86 334.84 271.56 334.84" fill="white" fill-opacity="0.9"/>
<path d="M286.83 334.52L284.04 334.52L284.04 311.16L287.88 311.16L295.02 331.16Q294.95 330.36 294.87 329.19Q294.79 328.02 294.75 326.73Q294.70 325.43 294.70 324.28L294.70 311.16L297.48 311.16L297.48 334.52L293.64 334.52L286.54 314.52Q286.60 315.29 286.67 316.46Q286.73 317.62 286.78 318.92Q286.83 320.22 286.83 321.40" fill="white" fill-opacity="0.9"/>
<path d="M316.20 334.52L303.72 334.52L303.72 331.90L308.49 331.90L308.49 313.78L303.72 313.78L303.72 311.16L316.20 311.16L316.20 313.78L311.43 313.78L311.43 331.90L316.20 331.90" fill="white" fill-opacity="0.9"/>
<path d="M330.60 334.52L327.72 334.52L327.72 313.78L321.32 313.78L321.32 311.16L337 311.16L337 313.78L330.60 313.78" fill="white" fill-opacity="0.9"/>
<path d="M349.80 334.52L346.92 334.52L346.92 325.78L339.88 311.16L342.95 311.16L347.50 320.76Q347.88 321.56 348.11 322.12Q348.33 322.68 348.39 322.94Q348.46 322.68 348.70 322.12Q348.94 321.56 349.32 320.76L353.87 311.16L356.84 311.16L349.80 325.78" fill="white" fill-opacity="0.9"/>
<path d="M382.83 334.52L380.04 334.52L380.04 311.16L383.88 311.16L391.02 331.16Q390.95 330.36 390.87 329.19Q390.79 328.02 390.75 326.73Q390.70 325.43 390.70 324.28L390.70 311.16L393.48 311.16L393.48 334.52L389.64 334.52L382.54 314.52Q382.60 315.29 382.67 316.46Q382.73 317.62 382.78 318.92Q382.83 320.22 382.83 321.40" fill="white" fill-opacity="0.9"/>
<path d="M405.96 334.84Q402.83 334.84 401 333.02Q399.18 331.19 399.18 327.80L399.18 317.88Q399.18 314.49 401 312.66Q402.83 310.84 405.96 310.84Q409.10 310.84 410.92 312.66Q412.75 314.49 412.75 317.85L412.75 327.80Q412.75 331.19 410.92 333.02Q409.10 334.84 405.96 334.84M405.96 332.25Q407.85 332.25 408.86 331.18Q409.87 330.10 409.87 328.12L409.87 317.56Q409.87 315.58 408.86 314.50Q407.85 313.43 405.96 313.43Q404.11 313.43 403.08 314.50Q402.06 315.58 402.06 317.56L402.06 328.12Q402.06 330.10 403.08 331.18Q404.11 332.25 405.96 332.25" fill="white" fill-opacity="0.9"/>
<path d="M424.55 334.52L418.51 334.52L418.51 311.16L424.55 311.16Q426.83 311.16 428.47 312.02Q430.12 312.89 431.03 314.46Q431.95 316.02 431.95 318.17L431.95 327.48Q431.95 329.62 431.03 331.21Q430.12 332.79 428.47 333.66Q426.83 334.52 424.55 334.52M421.39 313.72L421.39 331.96L424.55 331.96Q426.67 331.96 427.87 330.78Q429.07 329.59 429.07 327.48L429.07 318.17Q429.07 316.09 427.87 314.90Q426.67 313.72 424.55 313.72" fill="white" fill-opacity="0.9"/>
<path d="M451.40 334.52L437.96 334.52L437.96 311.16L451.40 311.16L451.40 313.78L440.81 313.78L440.81 321.02L450.28 321.02L450.28 323.58L440.81 323.58L440.81 331.90L451.40 331.90" fill="white" fill-opacity="0.9"/>
<path d="M463.69 334.84Q460.30 334.84 458.28 333.05Q456.27 331.26 456.27 328.12L459.15 328.12Q459.15 330.07 460.39 331.18Q461.64 332.28 463.69 332.28Q465.67 332.28 466.86 331.13Q468.04 329.98 468.04 328.12Q468.04 326.71 467.29 325.67Q466.54 324.63 465.13 324.25L461.58 323.26Q459.37 322.62 458.11 320.97Q456.84 319.32 456.84 317.08Q456.84 315.22 457.67 313.82Q458.51 312.41 460.01 311.62Q461.51 310.84 463.47 310.84Q465.45 310.84 466.97 311.62Q468.49 312.41 469.35 313.80Q470.22 315.19 470.22 317.02L467.34 317.02Q467.34 315.42 466.25 314.41Q465.16 313.40 463.47 313.40Q461.77 313.40 460.71 314.41Q459.66 315.42 459.66 317.02Q459.66 318.30 460.35 319.21Q461.03 320.12 462.28 320.47L465.93 321.50Q468.27 322.14 469.56 323.91Q470.86 325.69 470.86 328.12Q470.86 331.19 468.91 333.02Q466.95 334.84 463.69 334.84" fill="white" fill-opacity="0.9"/>
</g>
<path d="M74.37 197.64L72.21 197.64L72.21 180.12L77.85 180.12Q80.30 180.12 81.75 181.52Q83.20 182.93 83.20 185.28Q83.20 187.63 81.75 189.04Q80.30 190.44 77.85 190.44L74.37 190.44L74.37 197.64M74.37 182.06L74.37 188.50L77.85 188.50Q79.26 188.50 80.12 187.62Q80.97 186.74 80.97 185.28Q80.97 183.79 80.12 182.93Q79.26 182.06 77.85 182.06" fill="white" fill-opacity="0.7"/>
<path d="M91.58 197.88Q89.30 197.88 87.93 196.52Q86.56 195.17 86.56 192.84L86.56 184.44L88.72 184.44L88.72 192.84Q88.72 194.28 89.49 195.13Q90.26 195.98 91.58 195.98Q92.92 195.98 93.70 195.13Q94.48 194.28 94.48 192.84L94.48 184.44L96.64 184.44L96.64 192.84Q96.64 195.17 95.25 196.52Q93.86 197.88 91.58 197.88" fill="white" fill-opacity="0.7"/>
<path d="M103.17 197.64L101.01 197.64L101.01 184.44L103.17 184.44L103.17 186.96L103.19 186.96Q103.36 185.64 104.27 184.92Q105.18 184.20 106.70 184.20Q108.69 184.20 109.86 185.42Q111.04 186.65 111.04 188.76L111.04 197.64L108.88 197.64L108.88 189.14Q108.88 187.63 108.12 186.83Q107.37 186.02 106.07 186.02Q104.73 186.02 103.95 186.86Q103.17 187.70 103.17 189.24" fill="white" fill-opacity="0.7"/>
<path d="M118.34 201.96L115.36 201.96L115.36 199.99L118.34 199.99Q119.82 199.99 120.65 199.18Q121.48 198.36 121.48 196.90L121.48 186.41L115.24 186.41L115.24 184.44L123.64 184.44L123.64 196.90Q123.64 199.22 122.20 200.59Q120.76 201.96 118.34 201.96M122.32 182.06Q121.53 182.06 121.07 181.66Q120.62 181.25 120.62 180.55Q120.62 179.83 121.07 179.41Q121.53 178.99 122.32 178.99Q123.11 178.99 123.57 179.41Q124.02 179.83 124.02 180.55Q124.02 181.25 123.57 181.66Q123.11 182.06 122.32 182.06" fill="white" fill-opacity="0.7"/>
<path d="M133.65 197.88Q131.61 197.88 130.41 196.74Q129.21 195.60 129.21 193.75Q129.21 192.53 129.76 191.62Q130.31 190.70 131.30 190.19Q132.28 189.67 133.55 189.67L137.63 189.67L137.63 188.64Q137.63 186.07 134.82 186.07Q133.58 186.07 132.81 186.53Q132.04 186.98 131.99 187.80L129.83 187.80Q129.95 186.24 131.28 185.22Q132.62 184.20 134.82 184.20Q137.22 184.20 138.51 185.35Q139.79 186.50 139.79 188.57L139.79 197.64L137.66 197.64L137.66 195.24L137.61 195.24Q137.42 196.46 136.38 197.17Q135.35 197.88 133.65 197.88M134.18 196.06Q135.76 196.06 136.70 195.29Q137.63 194.52 137.63 193.20L137.63 191.35L133.79 191.35Q132.74 191.35 132.08 191.99Q131.42 192.62 131.42 193.68Q131.42 194.78 132.15 195.42Q132.88 196.06 134.18 196.06" fill="white" fill-opacity="0.7"/>
<path d="M149.97 197.88Q148.48 197.88 147.52 197.15Q146.56 196.42 146.39 195.12L146.37 195.12L146.37 197.64L144.21 197.64L144.21 180.12L146.37 180.12L146.37 183.96L146.32 186.96L146.34 186.96Q146.54 185.69 147.51 184.94Q148.48 184.20 149.97 184.20Q151.96 184.20 153.14 185.52Q154.31 186.84 154.31 189.12L154.31 192.98Q154.31 195.24 153.14 196.56Q151.96 197.88 149.97 197.88M149.25 196.01Q150.62 196.01 151.38 195.29Q152.15 194.57 152.15 192.96L152.15 189.12Q152.15 187.49 151.38 186.78Q150.62 186.07 149.25 186.07Q147.93 186.07 147.15 186.91Q146.37 187.75 146.37 189.24L146.37 192.84Q146.37 194.33 147.15 195.17Q147.93 196.01 149.25 196.01" fill="white" fill-opacity="0.7"/>
<path d="M178.36 201.96L174.66 201.96L174.66 199.99L178.38 199.99Q179.51 199.99 180.16 199.36Q180.81 198.72 180.81 197.64L180.81 196.44L180.86 194.28L180.78 194.28Q180.59 195.46 179.66 196.09Q178.72 196.73 177.30 196.73Q175.26 196.73 174.09 195.43Q172.91 194.14 172.91 191.88L172.91 189.10Q172.91 186.84 174.09 185.52Q175.26 184.20 177.30 184.20Q178.72 184.20 179.66 184.87Q180.59 185.54 180.78 186.72L180.83 186.72L180.83 184.44L182.97 184.44L182.97 197.64Q182.97 199.63 181.73 200.80Q180.50 201.96 178.36 201.96M177.95 194.93Q179.30 194.93 180.06 194.09Q180.83 193.25 180.83 191.76L180.83 189.24Q180.83 187.75 180.06 186.91Q179.30 186.07 177.95 186.07Q176.58 186.07 175.83 186.86Q175.07 187.66 175.07 189L175.07 192Q175.07 193.34 175.83 194.14Q176.58 194.93 177.95 194.93" fill="white" fill-opacity="0.7"/>
<path d="M192.40 197.83Q190.02 197.83 188.62 196.44Q187.22 195.05 187.22 192.55L187.22 189.53Q187.22 187.01 188.61 185.63QNaN 184.25 192.40 184.25Q194.80 184.25 196.19 185.63Q197.58 187.01 197.58 189.53L197.58 192.55Q197.58 195.05 196.18 196.44Q194.78 197.83 192.40 197.83M192.40 195.91Q193.82 195.91 194.62 195.12Q195.42 194.33 195.42 192.79L195.42 189.29Q195.42 187.75 194.62 186.96Q193.82 186.17 192.40 186.17Q191.01 186.17 190.19 186.96Q189.38 187.75 189.38 189.29L189.38 192.79Q189.38 194.33 190.19 195.12Q191.01 195.91 192.40 195.91" fill="white" fill-opacity="0.7"/>
<path d="M208.22 197.64L205.38 197.64L200.90 184.44L203.22 184.44L206.10 193.32Q206.37 194.11 206.56 194.84Q206.75 195.58 206.85 195.98Q206.97 195.58 207.14 194.84Q207.30 194.11 207.54 193.32L210.42 184.44L212.70 184.44" fill="white" fill-opacity="0.7"/>
<path d="M221.20 197.88Q218.87 197.88 217.44 196.48Q216.02 195.07 216.02 192.60L216.02 189.48Q216.02 187.01 217.44 185.60Q218.87 184.20 221.20 184.20Q222.76 184.20 223.92 184.82Q225.09 185.45 225.74 186.58Q226.38 187.70 226.38 189.24L226.38 191.59L218.13 191.59L218.13 192.84Q218.13 194.30 218.97 195.16Q219.81 196.01 221.20 196.01Q222.40 196.01 223.18 195.54Q223.96 195.07 224.13 194.28L226.29 194.28Q226.07 195.94 224.68 196.91Q223.29 197.88 221.20 197.88M218.13 189.24L218.13 189.91L224.27 189.91L224.27 189.24Q224.27 187.68 223.47 186.83Q222.66 185.98 221.20 185.98Q219.74 185.98 218.93 186.83Q218.13 187.68 218.13 189.24" fill="white" fill-opacity="0.7"/>
<path d="M233.25 197.64L231.09 197.64L231.09 184.44L233.25 184.44L233.25 186.96L233.30 186.96Q233.46 185.69 234.38 184.94Q235.29 184.20 236.82 184.20Q238.89 184.20 240 185.44Q241.12 186.67 241.12 188.95L241.12 190.08L238.96 190.08L238.96 188.95Q238.96 186.07 236.15 186.07Q234.74 186.07 233.99 186.89Q233.25 187.70 233.25 189.24" fill="white" fill-opacity="0.7"/>
<path d="M247.17 197.64L245.01 197.64L245.01 184.44L247.17 184.44L247.17 186.96L247.19 186.96Q247.36 185.64 248.27 184.92Q249.18 184.20 250.70 184.20Q252.69 184.20 253.86 185.42Q255.04 186.65 255.04 188.76L255.04 197.64L252.88 197.64L252.88 189.14Q252.88 187.63 252.12 186.83Q251.37 186.02 250.07 186.02Q248.73 186.02 247.95 186.86Q247.17 187.70 247.17 189.24" fill="white" fill-opacity="0.7"/>
<path d="M260.66 197.64L258.64 197.64L258.64 184.44L260.51 184.44L260.51 186.19L260.56 186.19Q260.68 185.30 261.27 184.75Q261.86 184.20 262.77 184.20Q263.63 184.20 264.23 184.70Q264.83 185.21 265.10 186.07L265.12 186.07Q265.29 185.21 265.88 184.70Q266.46 184.20 267.38 184.20Q268.65 184.20 269.40 185.15Q270.16 186.10 270.16 187.61L270.16 197.64L268.14 197.64L268.14 187.58Q268.14 186.79 267.76 186.32Q267.38 185.86 266.70 185.86Q266.06 185.86 265.67 186.31Q265.29 186.77 265.29 187.56L265.29 197.64L263.51 197.64L263.51 187.58Q263.51 186.79 263.13 186.32Q262.74 185.86 262.10 185.86Q261.42 185.86 261.04 186.31Q260.66 186.77 260.66 187.56" fill="white" fill-opacity="0.7"/>
<path d="M278.80 197.88Q276.47 197.88 275.04 196.48Q273.62 195.07 273.62 192.60L273.62 189.48Q273.62 187.01 275.04 185.60Q276.47 184.20 278.80 184.20Q280.36 184.20 281.52 184.82Q282.69 185.45 283.34 186.58Q283.98 187.70 283.98 189.24L283.98 191.59L275.73 191.59L275.73 192.84Q275.73 194.30 276.57 195.16Q277.41 196.01 278.80 196.01Q280 196.01 280.78 195.54Q281.56 195.07 281.73 194.28L283.89 194.28Q283.67 195.94 282.28 196.91Q280.89 197.88 278.80 197.88M275.73 189.24L275.73 189.91L281.87 189.91L281.87 189.24Q281.87 187.68 281.07 186.83Q280.26 185.98 278.80 185.98Q277.34 185.98 276.53 186.83Q275.73 187.68 275.73 189.24" fill="white" fill-opacity="0.7"/>
<path d="M290.37 197.64L288.21 197.64L288.21 184.44L290.37 184.44L290.37 186.96L290.39 186.96Q290.56 185.64 291.47 184.92Q292.38 184.20 293.90 184.20Q295.89 184.20 297.06 185.42Q298.24 186.65 298.24 188.76L298.24 197.64L296.08 197.64L296.08 189.14Q296.08 187.63 295.32 186.83Q294.57 186.02 293.27 186.02Q291.93 186.02 291.15 186.86Q290.37 187.70 290.37 189.24" fill="white" fill-opacity="0.7"/>
<path d="M312.76 197.64L308.92 197.64Q307.29 197.64 306.30 196.69Q305.32 195.74 305.32 194.16L305.32 186.41L301.53 186.41L301.53 184.44L305.32 184.44L305.32 180.72L307.48 180.72L307.48 184.44L312.88 184.44L312.88 186.41L307.48 186.41L307.48 194.16Q307.48 194.83 307.88 195.25Q308.27 195.67 308.92 195.67L312.76 195.67" fill="white" fill-opacity="0.7"/>
<path d="M323.06 187.32L320.97 187.32L320.78 180.12L323.22 180.12" fill="white" fill-opacity="0.7"/>
<path d="M336.93 197.83L335.87 197.83Q333.66 197.83 332.45 196.84Q331.24 195.84 331.24 194.02L333.40 194.02Q333.40 194.93 334.05 195.44Q334.70 195.96 335.87 195.96L336.93 195.96Q338.13 195.96 338.79 195.43Q339.45 194.90 339.45 193.94Q339.45 192.24 337.89 192.02L334.24 191.50Q332.90 191.30 332.15 190.38Q331.41 189.46 331.41 187.94Q331.41 186.22 332.60 185.23Q333.78 184.25 335.87 184.25L336.93 184.25Q338.85 184.25 340.06 185.20Q341.27 186.14 341.37 187.68L339.18 187.68Q339.14 186.98 338.52 186.53Q337.91 186.07 336.93 186.07L335.87 186.07Q334.77 186.07 334.14 186.58Q333.52 187.08 333.52 187.94Q333.52 189.34 334.79 189.53L338.20 190.01Q341.56 190.49 341.56 193.94Q341.56 195.79 340.35 196.81Q339.14 197.83 336.93 197.83" fill="white" fill-opacity="0.7"/>
<path d="M365.20 197.83Q362.82 197.83 361.42 196.44Q360.02 195.05 360.02 192.55L360.02 189.53Q360.02 187.01 361.41 185.63Q362.80 184.25 365.20 184.25Q367.60 184.25 368.99 185.63Q370.38 187.01 370.38 189.53L370.38 192.55Q370.38 195.05 368.98 196.44Q367.58 197.83 365.20 197.83M365.20 195.91Q366.62 195.91 367.42 195.12Q368.22 194.33 368.22 192.79L368.22 189.29Q368.22 187.75 367.42 186.96Q366.62 186.17 365.20 186.17Q363.81 186.17 362.99 186.96Q362.18 187.75 362.18 189.29L362.18 192.79Q362.18 194.33 362.99 195.12Q363.81 195.91 365.20 195.91" fill="white" fill-opacity="0.7"/>
<path d="M376.77 197.64L374.61 197.64L374.61 184.44L376.77 184.44L376.77 186.96L376.79 186.96Q376.96 185.64 377.87 184.92Q378.78 184.20 380.30 184.20Q382.29 184.20 383.46 185.42Q384.64 186.65 384.64 188.76L384.64 197.64L382.48 197.64L382.48 189.14Q382.48 187.63 381.72 186.83Q380.97 186.02 379.67 186.02Q378.33 186.02 377.55 186.86Q376.77 187.70 376.77 189.24" fill="white" fill-opacity="0.7"/>
<path d="M400 197.64L395.92 197.64Q394.17 197.64 393.12 196.62Q392.08 195.60 392.08 193.92L392.08 182.09L387.52 182.09L387.52 180.12L394.24 180.12L394.24 193.92Q394.24 194.74 394.70 195.20Q395.15 195.67 395.92 195.67L400 195.67" fill="white" fill-opacity="0.7"/>
<path d="M414.52 197.64L403.24 197.64L403.24 195.67L407.92 195.67L407.92 186.41L403.72 186.41L403.72 184.44L410.08 184.44L410.08 195.67L414.52 195.67L414.52 197.64M408.76 182.06Q407.97 182.06 407.51 181.66Q407.06 181.25 407.06 180.55Q407.06 179.83 407.51 179.41Q407.97 178.99 408.76 178.99Q409.55 178.99 410.01 179.41Q410.46 179.83 410.46 180.55Q410.46 181.25 410.01 181.66Q409.55 182.06 408.76 182.06" fill="white" fill-opacity="0.7"/>
<path d="M419.97 197.64L417.81 197.64L417.81 184.44L419.97 184.44L419.97 186.96L419.99 186.96Q420.16 185.64 421.07 184.92Q421.98 184.20 423.50 184.20Q425.49 184.20 426.66 185.42Q427.84 186.65 427.84 188.76L427.84 197.64L425.68 197.64L425.68 189.14Q425.68 187.63 424.92 186.83Q424.17 186.02 422.87 186.02Q421.53 186.02 420.75 186.86Q419.97 187.70 419.97 189.24" fill="white" fill-opacity="0.7"/>
<path d="M437.20 197.88Q434.87 197.88 433.44 196.48Q432.02 195.07 432.02 192.60L432.02 189.48Q432.02 187.01 433.44 185.60Q434.87 184.20 437.20 184.20Q438.76 184.20 439.92 184.82Q441.09 185.45 441.74 186.58Q442.38 187.70 442.38 189.24L442.38 191.59L434.13 191.59L434.13 192.84Q434.13 194.30 434.97 195.16Q435.81 196.01 437.20 196.01Q438.40 196.01 439.18 195.54Q439.96 195.07 440.13 194.28L442.29 194.28Q442.07 195.94 440.68 196.91Q439.29 197.88 437.20 197.88M434.13 189.24L434.13 189.91L440.27 189.91L440.27 189.24Q440.27 187.68 439.47 186.83Q438.66 185.98 437.20 185.98Q435.74 185.98 434.93 186.83Q434.13 187.68 434.13 189.24" fill="white" fill-opacity="0.7"/>
<path d="M463.17 201.96L461.01 201.96L461.01 184.44L463.17 184.44L463.17 186.96L463.19 186.96Q463.36 185.66 464.32 184.93Q465.28 184.20 466.77 184.20Q468.76 184.20 469.94 185.51Q471.11 186.82 471.11 189.10L471.11 192.96Q471.11 195.24 469.94 196.56Q468.76 197.88 466.77 197.88Q465.28 197.88 464.32 197.14Q463.36 196.39 463.19 195.12L463.12 195.12L463.17 198.12L463.17 201.96M466.05 196.01Q467.42 196.01 468.18 195.29Q468.95 194.57 468.95 192.96L468.95 189.12Q468.95 187.49 468.18 186.78Q467.42 186.07 466.05 186.07Q464.73 186.07 463.95 186.91Q463.17 187.75 463.17 189.24L463.17 192.84Q463.17 194.33 463.95 195.17Q464.73 196.01 466.05 196.01" fill="white" fill-opacity="0.7"/>
<path d="M480.40 197.83Q478.02 197.83 476.62 196.44Q475.22 195.05 475.22 192.55L475.22 189.53Q475.22 187.01 476.61 185.63Q478 184.25 480.40 184.25Q482.80 184.25 484.19 185.63Q485.58 187.01 485.58 189.53L485.58 192.55Q485.58 195.05 484.18 196.44Q482.78 197.83 480.40 197.83M480.40 195.91Q481.82 195.91 482.62 195.12Q483.42 194.33 483.42 192.79L483.42 189.29Q483.42 187.75 482.62 186.96Q481.82 186.17 480.40 186.17Q479.01 186.17 478.19 186.96Q477.38 187.75 477.38 189.29L477.38 192.79Q477.38 194.33 478.19 195.12Q479.01 195.91 480.40 195.91" fill="white" fill-opacity="0.7"/>
<path d="M492.45 197.64L490.29 197.64L490.29 184.44L492.45 184.44L492.45 186.96L492.50 186.96Q492.66 185.69 493.58 184.94Q494.49 184.20 496.02 184.20Q498.09 184.20 499.20 185.44Q500.32 186.67 500.32 188.95L500.32 190.08L498.16 190.08L498.16 188.95Q498.16 186.07 495.35 186.07Q493.94 186.07 493.19 186.89Q492.45 187.70 492.45 189.24" fill="white" fill-opacity="0.7"/>
<path d="M514.36 197.64L510.52 197.64Q508.89 197.64 507.90 196.69Q506.92 195.74 506.92 194.16L506.92 186.41L503.13 186.41L503.13 184.44L506.92 184.44L506.92 180.72L509.08 180.72L509.08 184.44L514.48 184.44L514.48 186.41L509.08 186.41L509.08 194.16Q509.08 194.83 509.48 195.25Q509.87 195.67 510.52 195.67L514.36 195.67" fill="white" fill-opacity="0.7"/>
<path d="M522.45 197.88Q520.41 197.88 519.21 196.74Q518.01 195.60 518.01 193.75Q518.01 192.53 518.56 191.62Q519.11 190.70 520.10 190.19Q521.08 189.67 522.35 189.67L526.43 189.67L526.43 188.64Q526.43 186.07 523.62 186.07Q522.38 186.07 521.61 186.53Q520.84 186.98 520.79 187.80L518.63 187.80Q518.75 186.24 520.08 185.22Q521.42 184.20 523.62 184.20Q526.02 184.20 527.31 185.35Q528.59 186.50 528.59 188.57L528.59 197.64L526.46 197.64L526.46 195.24L526.41 195.24Q526.22 196.46 525.18 197.17Q524.15 197.88 522.45 197.88M522.98 196.06Q524.56 196.06 525.50 195.29Q526.43 194.52 526.43 193.20L526.43 191.35L522.59 191.35Q521.54 191.35 520.88 191.99Q520.22 192.62 520.22 193.68Q520.22 194.78 520.95 195.42Q521.68 196.06 522.98 196.06" fill="white" fill-opacity="0.7"/>
<path d="M544 197.64L539.92 197.64Q538.17 197.64 537.12 196.62Q536.08 195.60 536.08 193.92L536.08 182.09L531.52 182.09L531.52 180.12L538.24 180.12L538.24 193.92Q538.24 194.74 538.70 195.20Q539.15 195.67 539.92 195.67L544 195.67" fill="white" fill-opacity="0.7"/>
<path d="M566.92 197.64L564.76 197.64L564.76 188.21L560.92 188.21L560.92 186.24L564.76 186.24L564.76 183.48Q564.76 181.92 565.74 181.02Q566.73 180.12 568.46 180.12L572.32 180.12L572.32 182.09L568.46 182.09Q566.92 182.09 566.92 183.48L566.92 186.24L572.32 186.24L572.32 188.21L566.92 188.21" fill="white" fill-opacity="0.7"/>
<path d="M581.20 197.83Q578.82 197.83 577.42 196.44Q576.02 195.05 576.02 192.55L576.02 189.53Q576.02 187.01 577.41 185.63Q578.80 184.25 581.20 184.25Q583.60 184.25 584.99 185.63Q586.38 187.01 586.38 189.53L586.38 192.55Q586.38 195.05 584.98 196.44Q583.58 197.83 581.20 197.83M581.20 195.91Q582.62 195.91 583.42 195.12Q584.22 194.33 584.22 192.79L584.22 189.29Q584.22 187.75 583.42 186.96Q582.62 186.17 581.20 186.17Q579.81 186.17 578.99 186.96Q578.18 187.75 578.18 189.29L578.18 192.79Q578.18 194.33 578.99 195.12Q579.81 195.91 581.20 195.91" fill="white" fill-opacity="0.7"/>
<path d="M593.25 197.64L591.09 197.64L591.09 184.44L593.25 184.44L593.25 186.96L593.30 186.96Q593.46 185.69 594.38 184.94Q595.29 184.20 596.82 184.20Q598.89 184.20 600 185.44Q601.12 186.67 601.12 188.95L601.12 190.08L598.96 190.08L598.96 188.95Q598.96 186.07 596.15 186.07Q594.74 186.07 593.99 186.89Q593.25 187.70 593.25 189.24" fill="white" fill-opacity="0.7"/>
<path d="M624.59 197.88Q622.19 197.88 620.75 196.54Q619.31 195.19 619.31 192.84L619.31 189.24Q619.31 186.89 620.75 185.54Q622.19 184.20 624.59 184.20Q626.87 184.20 628.28 185.42Q629.68 186.65 629.75 188.76L627.59 188.76Q627.52 187.49 626.73 186.80Q625.94 186.12 624.59 186.12Q623.18 186.12 622.32 186.92Q621.47 187.73 621.47 189.22L621.47 192.84Q621.47 194.33 622.32 195.14Q623.18 195.96 624.59 195.96Q625.94 195.96 626.73 195.26Q627.52 194.57 627.59 193.32L629.75 193.32Q629.68 195.43 628.28 196.66Q626.87 197.88 624.59 197.88" fill="white" fill-opacity="0.7"/>
<path d="M638.80 197.88Q636.47 197.88 635.04 196.48Q633.62 195.07 633.62 192.60L633.62 189.48Q633.62 187.01 635.04 185.60Q636.47 184.20 638.80 184.20Q640.36 184.20 641.52 184.82Q642.69 185.45 643.34 186.58Q643.98 187.70 643.98 189.24L643.98 191.59L635.73 191.59L635.73 192.84Q635.73 194.30 636.57 195.16Q637.41 196.01 638.80 196.01Q640 196.01 640.78 195.54Q641.56 195.07 641.73 194.28L643.89 194.28Q643.67 195.94 642.28 196.91Q640.89 197.88 638.80 197.88M635.73 189.24L635.73 189.91L641.87 189.91L641.87 189.24Q641.87 187.68 641.07 186.83Q640.26 185.98 638.80 185.98Q637.34 185.98 636.53 186.83Q635.73 187.68 635.73 189.24" fill="white" fill-opacity="0.7"/>
<path d="M650.85 197.64L648.69 197.64L648.69 184.44L650.85 184.44L650.85 186.96L650.90 186.96Q651.06 185.69 651.98 184.94Q652.89 184.20 654.42 184.20Q656.49 184.20 657.60 185.44Q658.72 186.67 658.72 188.95L658.72 190.08L656.56 190.08L656.56 188.95Q656.56 186.07 653.75 186.07Q652.34 186.07 651.59 186.89Q650.85 187.70 650.85 189.24" fill="white" fill-opacity="0.7"/>
<path d="M672.76 197.64L668.92 197.64Q667.29 197.64 666.30 196.69Q665.32 195.74 665.32 194.16L665.32 186.41L661.53 186.41L661.53 184.44L665.32 184.44L665.32 180.72L667.48 180.72L667.48 184.44L672.88 184.44L672.88 186.41L667.48 186.41L667.48 194.16Q667.48 194.83 667.88 195.25Q668.27 195.67 668.92 195.67L672.76 195.67" fill="white" fill-opacity="0.7"/>
<path d="M688.12 197.64L676.84 197.64L676.84 195.67L681.52 195.67L681.52 186.41L677.32 186.41L677.32 184.44L683.68 184.44L683.68 195.67L688.12 195.67L688.12 197.64M682.36 182.06Q681.57 182.06 681.11 181.66Q680.66 181.25 680.66 180.55Q680.66 179.83 681.11 179.41Q681.57 178.99 682.36 178.99Q683.15 178.99 683.61 179.41Q684.06 179.83 684.06 180.55Q684.06 181.25 683.61 181.66Q683.15 182.06 682.36 182.06" fill="white" fill-opacity="0.7"/>
<path d="M696.52 197.64L694.36 197.64L694.36 188.21L690.52 188.21L690.52 186.24L694.36 186.24L694.36 183.48Q694.36 181.92 695.34 181.02Q696.33 180.12 698.06 180.12L701.92 180.12L701.92 182.09L698.06 182.09Q696.52 182.09 696.52 183.48L696.52 186.24L701.92 186.24L701.92 188.21L696.52 188.21" fill="white" fill-opacity="0.7"/>
<path d="M716.92 197.64L705.64 197.64L705.64 195.67L710.32 195.67L710.32 186.41L706.12 186.41L706.12 184.44L712.48 184.44L712.48 195.67L716.92 195.67L716.92 197.64M711.16 182.06Q710.37 182.06 709.91 181.66Q709.46 181.25 709.46 180.55Q709.46 179.83 709.91 179.41Q710.37 178.99 711.16 178.99Q711.95 178.99 712.41 179.41Q712.86 179.83 712.86 180.55Q712.86 181.25 712.41 181.66Q711.95 182.06 711.16 182.06" fill="white" fill-opacity="0.7"/>
<path d="M725.39 197.88Q722.99 197.88 721.55 196.54Q720.11 195.19 720.11 192.84L720.11 189.24Q720.11 186.89 721.55 185.54Q722.99 184.20 725.39 184.20Q727.67 184.20 729.08 185.42Q730.48 186.65 730.55 188.76L728.39 188.76Q728.32 187.49 727.53 186.80Q726.74 186.12 725.39 186.12Q723.98 186.12 723.12 186.92Q722.27 187.73 722.27 189.22L722.27 192.84Q722.27 194.33 723.12 195.14Q723.98 195.96 725.39 195.96Q726.74 195.96 727.53 195.26Q728.32 194.57 728.39 193.32L730.55 193.32Q730.48 195.43 729.08 196.66Q727.67 197.88 725.39 197.88" fill="white" fill-opacity="0.7"/>
<path d="M738.45 197.88Q736.41 197.88 735.21 196.74Q734.01 195.60 734.01 193.75Q734.01 192.53 734.56 191.62Q735.11 190.70 736.10 190.19Q737.08 189.67 738.35 189.67L742.43 189.67L742.43 188.64Q742.43 186.07 739.62 186.07Q738.38 186.07 737.61 186.53Q736.84 186.98 736.79 187.80L734.63 187.80Q734.75 186.24 736.08 185.22Q737.42 184.20 739.62 184.20Q742.02 184.20 743.31 185.35Q744.59 186.50 744.59 188.57L744.59 197.64L742.46 197.64L742.46 195.24L742.41 195.24Q742.22 196.46 741.18 197.17Q740.15 197.88 738.45 197.88M738.98 196.06Q740.56 196.06 741.50 195.29Q742.43 194.52 742.43 193.20L742.43 191.35L738.59 191.35Q737.54 191.35 736.88 191.99Q736.22 192.62 736.22 193.68Q736.22 194.78 736.95 195.42Q737.68 196.06 738.98 196.06" fill="white" fill-opacity="0.7"/>
<path d="M759.16 197.64L755.32 197.64Q753.69 197.64 752.70 196.69Q751.72 195.74 751.72 194.16L751.72 186.41L747.93 186.41L747.93 184.44L751.72 184.44L751.72 180.72L753.88 180.72L753.88 184.44L759.28 184.44L759.28 186.41L753.88 186.41L753.88 194.16Q753.88 194.83 754.28 195.25Q754.67 195.67 755.32 195.67L759.16 195.67" fill="white" fill-opacity="0.7"/>
<path d="M768.40 197.88Q766.07 197.88 764.64 196.48Q763.22 195.07 763.22 192.60L763.22 189.48Q763.22 187.01 764.64 185.60Q766.07 184.20 768.40 184.20Q769.96 184.20 771.12 184.82Q772.29 185.45 772.94 186.58Q773.58 187.70 773.58 189.24L773.58 191.59L765.33 191.59L765.33 192.84Q765.33 194.30 766.17 195.16Q767.01 196.01 768.40 196.01Q769.60 196.01 770.38 195.54Q771.16 195.07 771.33 194.28L773.49 194.28Q773.27 195.94 771.88 196.91Q770.49 197.88 768.40 197.88M765.33 189.24L765.33 189.91L771.47 189.91L771.47 189.24Q771.47 187.68 770.67 186.83Q769.86 185.98 768.40 185.98Q766.94 185.98 766.13 186.83Q765.33 187.68 765.33 189.24" fill="white" fill-opacity="0.7"/>
<path d="M783.33 197.83L782.27 197.83Q780.06 197.83 778.85 196.84Q777.64 195.84 777.64 194.02L779.80 194.02Q779.80 194.93 780.45 195.44Q781.10 195.96 782.27 195.96L783.33 195.96Q784.53 195.96 785.19 195.43Q785.85 194.90 785.85 193.94Q785.85 192.24 784.29 192.02L780.64 191.50Q779.30 191.30 778.55 190.38Q777.81 189.46 777.81 187.94Q777.81 186.22 779 185.23Q780.18 184.25 782.27 184.25L783.33 184.25Q785.25 184.25 786.46 185.20Q787.67 186.14 787.77 187.68L785.58 187.68Q785.54 186.98 784.92 186.53Q784.31 186.07 783.33 186.07L782.27 186.07Q781.17 186.07 780.54 186.58Q779.92 187.08 779.92 187.94Q779.92 189.34 781.19 189.53L784.60 190.01Q787.96 190.49 787.96 193.94Q787.96 195.79 786.75 196.81Q785.54 197.83 783.33 197.83" fill="white" fill-opacity="0.7"/>
<path d="M817.60 197.64L813.52 197.64Q811.77 197.64 810.72 196.62Q809.68 195.60 809.68 193.92L809.68 182.09L805.12 182.09L805.12 180.12L811.84 180.12L811.84 193.92Q811.84 194.74 812.30 195.20Q812.75 195.67 813.52 195.67L817.60 195.67" fill="white" fill-opacity="0.7"/>
<path d="M832.12 197.64L820.84 197.64L820.84 195.67L825.52 195.67L825.52 186.41L821.32 186.41L821.32 184.44L827.68 184.44L827.68 195.67L832.12 195.67L832.12 197.64M826.36 182.06Q825.57 182.06 825.11 181.66Q824.66 181.25 824.66 180.55Q824.66 179.83 825.11 179.41Q825.57 178.99 826.36 178.99Q827.15 178.99 827.61 179.41Q828.06 179.83 828.06 180.55Q828.06 181.25 827.61 181.66Q827.15 182.06 826.36 182.06" fill="white" fill-opacity="0.7"/>
<path d="M837.69 197.64L835.53 197.64L835.53 180.12L837.69 180.12L837.69 189.89L840.21 189.89L843.90 184.44L846.38 184.44L842.13 190.73L846.62 197.64L844.10 197.64L840.26 191.76L837.69 191.76" fill="white" fill-opacity="0.7"/>
<path d="M854.80 197.88Q852.47 197.88 851.04 196.48Q849.62 195.07 849.62 192.60L849.62 189.48Q849.62 187.01 851.04 185.60Q852.47 184.20 854.80 184.20Q856.36 184.20 857.52 184.82Q858.69 185.45 859.34 186.58Q859.98 187.70 859.98 189.24L859.98 191.59L851.73 191.59L851.73 192.84Q851.73 194.30 852.57 195.16Q853.41 196.01 854.80 196.01Q856 196.01 856.78 195.54Q857.56 195.07 857.73 194.28L859.89 194.28Q859.67 195.94 858.28 196.91Q856.89 197.88 854.80 197.88M851.73 189.24L851.73 189.91L857.87 189.91L857.87 189.24Q857.87 187.68 857.07 186.83Q856.26 185.98 854.80 185.98Q853.34 185.98 852.53 186.83Q851.73 187.68 851.73 189.24" fill="white" fill-opacity="0.7"/>
<path d="M880.77 197.64L878.63 197.64L878.63 180.12L884.03 180.12Q885.59 180.12 886.77 180.76Q887.94 181.39 888.59 182.52Q889.24 183.65 889.24 185.16Q889.24 186.94 888.33 188.21Q887.42 189.48 885.90 189.98L889.48 197.64L887.10 197.64L883.67 190.20L880.77 190.20L880.77 197.64M880.77 182.06L880.77 188.26L884.03 188.26Q885.38 188.26 886.19 187.40Q887.01 186.55 887.01 185.16Q887.01 183.74 886.19 182.90Q885.38 182.06 884.03 182.06" fill="white" fill-opacity="0.7"/>
<path d="M898 197.88Q895.67 197.88 894.24 196.48Q892.82 195.07 892.82 192.60L892.82 189.48Q892.82 187.01 894.24 185.60Q895.67 184.20 898 184.20Q899.56 184.20 900.72 184.82Q901.89 185.45 902.54 186.58Q903.18 187.70 903.18 189.24L903.18 191.59L894.93 191.59L894.93 192.84Q894.93 194.30 895.77 195.16Q896.61 196.01 898 196.01Q899.20 196.01 899.98 195.54Q900.76 195.07 900.93 194.28L903.09 194.28Q902.87 195.94 901.48 196.91Q900.09 197.88 898 197.88M894.93 189.24L894.93 189.91L901.07 189.91L901.07 189.24Q901.07 187.68 900.27 186.83Q899.46 185.98 898 185.98Q896.54 185.98 895.73 186.83Q894.93 187.68 894.93 189.24" fill="white" fill-opacity="0.7"/>
<path d="M912.93 197.83L911.87 197.83Q909.66 197.83 908.45 196.84Q907.24 195.84 907.24 194.02L909.40 194.02Q909.40 194.93 910.05 195.44Q910.70 195.96 911.87 195.96L912.93 195.96Q914.13 195.96 914.79 195.43Q915.45 194.90 915.45 193.94Q915.45 192.24 913.89 192.02L910.24 191.50Q908.90 191.30 908.15 190.38Q907.41 189.46 907.41 187.94Q907.41 186.22 908.60 185.23Q909.78 184.25 911.87 184.25L912.93 184.25Q914.85 184.25 916.06 185.20Q917.27 186.14 917.37 187.68L915.18 187.68Q915.14 186.98 914.52 186.53Q913.91 186.07 912.93 186.07L911.87 186.07Q910.77 186.07 910.14 186.58Q909.52 187.08 909.52 187.94Q909.52 189.34 910.79 189.53L914.20 190.01Q917.56 190.49 917.56 193.94Q917.56 195.79 916.35 196.81Q915.14 197.83 912.93 197.83" fill="white" fill-opacity="0.7"/>
<path d="M932.92 197.64L921.64 197.64L921.64 195.67L926.32 195.67L926.32 186.41L922.12 186.41L922.12 184.44L928.48 184.44L928.48 195.67L932.92 195.67L932.92 197.64M927.16 182.06Q926.37 182.06 925.91 181.66Q925.46 181.25 925.46 180.55Q925.46 179.83 925.91 179.41Q926.37 178.99 927.16 178.99Q927.95 178.99 928.41 179.41Q928.86 179.83 928.86 180.55Q928.86 181.25 928.41 181.66Q927.95 182.06 927.16 182.06" fill="white" fill-opacity="0.7"/>
<path d="M940.43 197.88Q938.46 197.88 937.28 196.56Q936.09 195.24 936.09 192.98L936.09 189.12Q936.09 186.84 937.26 185.52Q938.44 184.20 940.43 184.20Q941.92 184.20 942.89 184.94Q943.86 185.69 944.06 186.96L944.08 186.96L944.03 183.96L944.03 180.12L946.19 180.12L946.19 197.64L944.03 197.64L944.03 195.12L944.01 195.12Q943.84 196.42 942.88 197.15Q941.92 197.88 940.43 197.88M941.15 196.01Q942.50 196.01 943.26 195.17Q944.03 194.33 944.03 192.84L944.03 189.24Q944.03 187.75 943.26 186.91Q942.50 186.07 941.15 186.07Q939.78 186.07 939.02 186.78Q938.25 187.49 938.25 189.12L938.25 192.96Q938.25 194.57 939.02 195.29Q939.78 196.01 941.15 196.01" fill="white" fill-opacity="0.7"/>
<path d="M955.60 197.88Q953.27 197.88 951.84 196.48Q950.42 195.07 950.42 192.60L950.42 189.48Q950.42 187.01 951.84 185.60Q953.27 184.20 955.60 184.20Q957.16 184.20 958.32 184.82Q959.49 185.45 960.14 186.58Q960.78 187.70 960.78 189.24L960.78 191.59L952.53 191.59L952.53 192.84Q952.53 194.30 953.37 195.16Q954.21 196.01 955.60 196.01Q956.80 196.01 957.58 195.54Q958.36 195.07 958.53 194.28L960.69 194.28Q960.47 195.94 959.08 196.91Q957.69 197.88 955.60 197.88M952.53 189.24L952.53 189.91L958.67 189.91L958.67 189.24Q958.67 187.68 957.87 186.83Q957.06 185.98 955.60 185.98Q954.14 185.98 953.33 186.83Q952.53 187.68 952.53 189.24" fill="white" fill-opacity="0.7"/>
<path d="M967.17 197.64L965.01 197.64L965.01 184.44L967.17 184.44L967.17 186.96L967.19 186.96Q967.36 185.64 968.27 184.92Q969.18 184.20 970.70 184.20Q972.69 184.20 973.86 185.42Q975.04 186.65 975.04 188.76L975.04 197.64L972.88 197.64L972.88 189.14Q972.88 187.63 972.12 186.83Q971.37 186.02 970.07 186.02Q968.73 186.02 967.95 186.86Q967.17 187.70 967.17 189.24" fill="white" fill-opacity="0.7"/>
<path d="M984.59 197.88Q982.19 197.88 980.75 196.54Q979.31 195.19 979.31 192.84L979.31 189.24Q979.31 186.89 980.75 185.54Q982.19 184.20 984.59 184.20Q986.87 184.20 988.28 185.42Q989.68 186.65 989.75 188.76L987.59 188.76Q987.52 187.49 986.73 186.80Q985.94 186.12 984.59 186.12Q983.18 186.12 982.32 186.92Q981.47 187.73 981.47 189.22L981.47 192.84Q981.47 194.33 982.32 195.14Q983.18 195.96 984.59 195.96Q985.94 195.96 986.73 195.26Q987.52 194.57 987.59 193.32L989.75 193.32Q989.68 195.43 988.28 196.66Q986.87 197.88 984.59 197.88" fill="white" fill-opacity="0.7"/>
<path d="M998.80 197.88Q996.47 197.88 995.04 196.48Q993.62 195.07 993.62 192.60L993.62 189.48Q993.62 187.01 995.04 185.60Q996.47 184.20 998.80 184.20Q1000.36 184.20 1001.52 184.82Q1002.69 185.45 1003.34 186.58Q1003.98 187.70 1003.98 189.24L1003.98 191.59L995.73 191.59L995.73 192.84Q995.73 194.30 996.57 195.16Q997.41 196.01 998.80 196.01Q1000 196.01 1000.78 195.54Q1001.56 195.07 1001.73 194.28L1003.89 194.28Q1003.67 195.94 1002.28 196.91Q1000.89 197.88 998.80 197.88M995.73 189.24L995.73 189.91L1001.87 189.91L1001.87 189.24Q1001.87 187.68 1001.07 186.83Q1000.26 185.98 998.80 185.98Q997.34 185.98 996.53 186.83Q995.73 187.68 995.73 189.24" fill="white" fill-opacity="0.7"/>
<path d="M1013.27 201.48L1011.04 201.48L1012.36 194.14L1014.95 194.14" fill="white" fill-opacity="0.7"/>
<path d="M1042.10 197.88Q1039.55 197.88 1038.04 196.54Q1036.53 195.19 1036.53 192.84L1038.69 192.84Q1038.69 194.30 1039.62 195.13Q1040.56 195.96 1042.10 195.96Q1043.58 195.96 1044.47 195.10Q1045.36 194.23 1045.36 192.84Q1045.36 191.78 1044.80 191Q1044.23 190.22 1043.18 189.94L1040.51 189.19Q1038.86 188.71 1037.91 187.48Q1036.96 186.24 1036.96 184.56Q1036.96 183.17 1037.58 182.11Q1038.21 181.06 1039.34 180.47Q1040.46 179.88 1041.93 179.88Q1043.42 179.88 1044.56 180.47Q1045.70 181.06 1046.34 182.10Q1046.99 183.14 1046.99 184.51L1044.83 184.51Q1044.83 183.31 1044.02 182.56Q1043.20 181.80 1041.93 181.80Q1040.66 181.80 1039.86 182.56Q1039.07 183.31 1039.07 184.51Q1039.07 185.47 1039.59 186.16Q1040.10 186.84 1041.04 187.10L1043.78 187.87Q1045.53 188.35 1046.50 189.68Q1047.47 191.02 1047.47 192.84Q1047.47 195.14 1046.01 196.51Q1044.54 197.88 1042.10 197.88" fill="white" fill-opacity="0.7"/>
<path d="M1056.59 197.88Q1054.19 197.88 1052.80 196.54Q1051.41 195.19 1051.41 192.84L1051.41 184.92Q1051.41 182.57 1052.80 181.22Q1054.19 179.88 1056.59 179.88Q1058.94 179.88 1060.34 181.24Q1061.73 182.59 1061.73 184.92L1059.57 184.92Q1059.57 183.43 1058.79 182.63Q1058.01 181.82 1056.59 181.82Q1055.18 181.82 1054.37 182.63Q1053.57 183.43 1053.57 184.92L1053.57 192.84Q1053.57 194.33 1054.37 195.13Q1055.18 195.94 1056.59 195.94Q1058.01 195.94 1058.79 195.13Q1059.57 194.33 1059.57 192.84L1061.73 192.84Q1061.73 195.17 1060.34 196.52Q1058.94 197.88 1056.59 197.88" fill="white" fill-opacity="0.7"/>
<path d="M1067.68 200.28L1065.40 200.28L1073.92 177.72L1076.20 177.72" fill="white" fill-opacity="0.7"/>
<path d="M1085.30 197.88Q1082.75 197.88 1081.24 196.54Q1079.73 195.19 1079.73 192.84L1081.89 192.84Q1081.89 194.30 1082.82 195.13Q1083.76 195.96 1085.30 195.96Q1086.78 195.96 1087.67 195.10Q1088.56 194.23 1088.56 192.84Q1088.56 191.78 1088 191Q1087.43 190.22 1086.38 189.94L1083.71 189.19Q1082.06 188.71 1081.11 187.48Q1080.16 186.24 1080.16 184.56Q1080.16 183.17 1080.78 182.11Q1081.41 181.06 1082.54 180.47Q1083.66 179.88 1085.13 179.88Q1086.62 179.88 1087.76 180.47Q1088.90 181.06 1089.54 182.10Q1090.19 183.14 1090.19 184.51L1088.03 184.51Q1088.03 183.31 1087.22 182.56Q1086.40 181.80 1085.13 181.80Q1083.86 181.80 1083.06 182.56Q1082.27 183.31 1082.27 184.51Q1082.27 185.47 1082.79 186.16Q1083.30 186.84 1084.24 187.10L1086.98 187.87Q1088.73 188.35 1089.70 189.68Q1090.67 191.02 1090.67 192.84Q1090.67 195.14 1089.21 196.51Q1087.74 197.88 1085.30 197.88" fill="white" fill-opacity="0.7"/>
<path d="M1100.68 197.64L1098.52 197.64L1098.52 182.09L1093.72 182.09L1093.72 180.12L1105.48 180.12L1105.48 182.09L1100.68 182.09" fill="white" fill-opacity="0.7"/>
<path d="M1114.07 201.48L1111.84 201.48L1113.16 194.14L1115.75 194.14" fill="white" fill-opacity="0.7"/>
<path d="M77.20 229.88Q74.85 229.88 73.48 228.51Q72.11 227.14 72.11 224.60L72.11 217.16Q72.11 214.62 73.48 213.25Q74.85 211.88 77.20 211.88Q79.55 211.88 80.92 213.25Q82.29 214.62 82.29 217.14L82.29 224.60Q82.29 227.14 80.92 228.51Q79.55 229.88 77.20 229.88M77.20 227.94Q78.62 227.94 79.37 227.13Q80.13 226.33 80.13 224.84L80.13 216.92Q80.13 215.43 79.37 214.63Q78.62 213.82 77.20 213.82Q75.81 213.82 75.04 214.63Q74.27 215.43 74.27 216.92L74.27 224.84Q74.27 226.33 75.04 227.13Q75.81 227.94 77.20 227.94" fill="white" fill-opacity="0.7"/>
<path d="M91.96 229.64L86.63 229.64L86.63 212.12L91.60 212.12Q94 212.12 95.36 213.32Q96.71 214.52 96.71 216.66Q96.71 218 95.86 219.08Q95.01 220.16 93.64 220.42L93.64 220.50Q94.67 220.62 95.45 221.22Q96.23 221.82 96.68 222.74Q97.12 223.66 97.12 224.77Q97.12 227.02 95.74 228.33Q94.36 229.64 91.96 229.64M88.74 214.06L88.74 219.58L91.58 219.58Q92.97 219.58 93.77 218.84Q94.58 218.10 94.58 216.82Q94.58 215.55 93.78 214.81Q92.99 214.06 91.60 214.06L88.74 214.06M88.74 221.46L88.74 227.70L91.72 227.70Q93.23 227.70 94.11 226.89Q94.98 226.09 94.98 224.70Q94.98 223.26 94.11 222.36Q93.23 221.46 91.72 221.46" fill="white" fill-opacity="0.7"/>
<path d="M106.19 229.88Q103.79 229.88 102.40 228.54Q101.01 227.19 101.01 224.84L101.01 216.92Q101.01 214.57 102.40 213.22Q103.79 211.88 106.19 211.88Q108.54 211.88 109.94 213.24Q111.33 214.59 111.33 216.92L109.17 216.92Q109.17 215.43 108.39 214.63Q107.61 213.82 106.19 213.82Q104.78 213.82 103.97 214.63Q103.17 215.43 103.17 216.92L103.17 224.84Q103.17 226.33 103.97 227.13Q104.78 227.94 106.19 227.94Q107.61 227.94 108.39 227.13Q109.17 226.33 109.17 224.84L111.33 224.84Q111.33 227.17 109.94 228.52Q108.54 229.88 106.19 229.88" fill="white" fill-opacity="0.7"/>
<path d="M120.40 229.88Q119.51 229.88 118.97 229.35Q118.43 228.82 118.43 227.98Q118.43 227.10 118.97 226.54Q119.51 225.99 120.40 225.99Q121.29 225.99 121.83 226.54Q122.37 227.10 122.37 227.98Q122.37 228.82 121.83 229.35Q121.29 229.88 120.40 229.88" fill="white" fill-opacity="0.7"/>
<path d="M76.11 136.06L66.42 136.06L84.56 65.98L97.14 65.98L115.18 136.06L105.49 136.06L101.07 117.82L80.53 117.82L76.11 136.06M87.54 88.92L82.45 109.95L99.15 109.95L94.16 89.02Q92.72 83.26 91.86 79.23Q90.99 75.20 90.80 73.76Q90.61 75.20 89.74 79.23Q88.88 83.26 87.54 88.92M137.55 136.06L128.05 136.06L128.05 65.98L150.80 65.98Q157.52 65.98 162.42 68.57Q167.31 71.16 170 75.82Q172.69 80.48 172.69 86.91Q172.69 93.24 170 97.90Q167.31 102.56 162.37 105.15Q157.42 107.74 150.80 107.74L137.55 107.74L137.55 136.06M137.55 74.43L137.55 99.29L150.80 99.29Q156.37 99.29 159.63 95.88Q162.90 92.48 162.90 86.91Q162.90 81.24 159.63 77.84Q156.37 74.43 150.80 74.43L137.55 74.43M225.10 136.06L186.90 136.06L186.90 127.42L201.20 127.42L201.20 74.62L186.90 74.62L186.90 65.98L225.10 65.98L225.10 74.62L210.80 74.62L210.80 127.42L225.10 127.42L225.10 136.06M263.98 137.02Q253.62 137.02 247.47 131.60Q241.33 126.17 241.33 116.67L250.83 116.67Q250.83 122.24 254.38 125.40Q257.94 128.57 263.98 128.57Q269.74 128.57 273.15 125.36Q276.56 122.14 276.56 116.76Q276.56 112.73 274.35 109.71Q272.14 106.68 268.11 105.63L257.74 102.84Q250.93 100.92 246.94 95.88Q242.96 90.84 242.96 83.93Q242.96 78.27 245.50 74Q248.05 69.72 252.66 67.37Q257.26 65.02 263.31 65.02Q269.46 65.02 274.11 67.37Q278.77 69.72 281.36 73.95Q283.95 78.17 283.95 83.74L274.54 83.74Q274.54 79.13 271.42 76.25Q268.30 73.37 263.31 73.37Q258.32 73.37 255.30 76.25Q252.27 79.13 252.27 83.74Q252.27 87.48 254.29 90.03Q256.30 92.57 259.95 93.63L270.61 96.51Q277.81 98.43 281.84 103.85Q285.87 109.28 285.87 116.76Q285.87 122.91 283.18 127.47Q280.50 132.03 275.55 134.52Q270.61 137.02 263.98 137.02M342.51 136.06L301.71 136.06L301.71 65.98L342.51 65.98L342.51 74.52L311.12 74.52L311.12 95.36L339.15 95.36L339.15 103.61L311.12 103.61L311.12 127.52L342.51 127.52L342.51 136.06M383.60 136.06L374.10 136.06L374.10 74.62L355.09 74.62L355.09 65.98L402.51 65.98L402.51 74.62L383.60 74.62L383.60 136.06M436.40 137.02Q426.51 137.02 421.18 131.55Q415.86 126.08 415.86 116.67L415.86 65.98L425.36 65.98L425.36 116.67Q425.36 122.24 428.10 125.40Q430.83 128.57 436.40 128.57Q441.87 128.57 444.70 125.40Q447.54 122.24 447.54 116.67L447.54 65.98L457.04 65.98L457.04 116.67Q457.04 126.17 451.71 131.60Q446.38 137.02 436.40 137.02M551.98 137.02Q542.29 137.02 536.58 131.60Q530.86 126.17 530.86 116.67L530.86 85.28Q530.86 75.87 536.58 70.44Q542.29 65.02 551.98 65.02Q561.58 65.02 567.30 70.49Q573.01 75.96 573.01 85.28L563.50 85.28Q563.50 79.61 560.43 76.54Q557.36 73.47 551.98 73.47Q546.51 73.47 543.44 76.54Q540.37 79.61 540.37 85.28L540.37 116.67Q540.37 122.43 543.44 125.50Q546.51 128.57 551.98 128.57Q557.36 128.57 560.43 125.50Q563.50 122.43 563.50 116.67L563.50 107.55L549.87 107.55L549.87 99.10L573.01 99.10L573.01 116.67Q573.01 126.08 567.30 131.55Q561.58 137.02 551.98 137.02M609.20 137.02Q599.60 137.02 594.03 131.45Q588.46 125.88 588.46 115.71L588.46 86.24Q588.46 76.16 594.03 70.59Q599.60 65.02 609.20 65.02Q618.80 65.02 624.37 70.54Q629.94 76.06 629.94 86.24L629.94 115.71Q629.94 125.88 624.37 131.45Q618.80 137.02 609.20 137.02M609.20 128.57Q614.58 128.57 617.50 125.50Q620.43 122.43 620.43 116.67L620.43 85.28Q620.43 79.61 617.55 76.54Q614.67 73.47 609.20 73.47Q603.73 73.47 600.85 76.54Q597.97 79.61 597.97 85.28L597.97 116.67Q597.97 122.43 600.90 125.50Q603.82 128.57 609.20 128.57M673.14 136.06L660.37 136.06L642.42 65.98L652.21 65.98L663.82 113.21Q664.98 117.72 665.79 121.90Q666.61 126.08 666.99 128.28Q667.28 126.08 668.19 121.85Q669.10 117.63 670.16 113.12L681.39 65.98L691.18 65.98L673.14 136.06M803.31 136.06L762.51 136.06L762.51 65.98L803.31 65.98L803.31 74.52L771.92 74.52L771.92 95.36L799.95 95.36L799.95 103.61L771.92 103.61L771.92 127.52L803.31 127.52L803.31 136.06M838.06 136.06L819.25 136.06L819.25 65.98L838.06 65.98Q844.88 65.98 849.92 68.62Q854.96 71.26 857.74 76.01Q860.53 80.76 860.53 87.20L860.53 114.75Q860.53 121.18 857.74 125.98Q854.96 130.78 849.92 133.42Q844.88 136.06 838.06 136.06M828.75 74.43L828.75 127.61L838.06 127.61Q844.11 127.61 847.57 124.16Q851.02 120.70 851.02 114.75L851.02 87.20Q851.02 81.24 847.57 77.84Q844.11 74.43 838.06 74.43L828.75 74.43M916.30 136.06L878.10 136.06L878.10 127.42L892.40 127.42L892.40 74.62L878.10 74.62L878.10 65.98L916.30 65.98L916.30 74.62LNaN 74.62LNaN 127.42L916.30 127.42L916.30 136.06M955.18 137.02Q944.82 137.02 938.67 131.60Q932.53 126.17 932.53 116.67L942.03 116.67Q942.03 122.24 945.58 125.40Q949.14 128.57 955.18 128.57Q960.94 128.57 964.35 125.36Q967.76 122.14 967.76 116.76Q967.76 112.73 965.55 109.71Q963.34 106.68 959.31 105.63L948.94 102.84Q942.13 100.92 938.14 95.88Q934.16 90.84 934.16 83.93Q934.16 78.27 936.70 74Q939.25 69.72 943.86 67.37Q948.46 65.02 954.51 65.02Q960.66 65.02 965.31 67.37Q969.97 69.72 972.56 73.95Q975.15 78.17 975.15 83.74L965.74 83.74Q965.74 79.13 962.62 76.25Q959.50 73.37 954.51 73.37Q949.52 73.37 946.50 76.25Q943.47 79.13 943.47 83.74Q943.47 87.48 945.49 90.03Q947.50 92.57 951.15 93.63L961.81 96.51Q969.01 98.43 973.04 103.85Q977.07 109.28 977.07 116.76Q977.07 122.91 974.38 127.47Q971.70 132.03 966.75 134.52Q961.81 137.02 955.18 137.02M1017.20 136.06L1007.70 136.06L1007.70 74.62L988.69 74.62L988.69 65.98L1036.11 65.98L1036.11 74.62L1017.20 74.62L1017.20 136.06M1059.15 136.06L1049.74 136.06L1049.74 65.98L1071.44 65.98Q1077.87 65.98 1082.67 68.52Q1087.47 71.07 1090.16 75.63Q1092.85 80.19 1092.85 86.33Q1092.85 93.44 1089.25 98.52Q1085.65 103.61 1079.70 105.72L1093.81 136.06L1083.34 136.06LNaN 106.78L1059.15 106.78L1059.15 136.06M1059.15 74.43L1059.15 98.33L1071.44 98.33Q1076.82 98.33 1079.94 95.07Q1083.06 91.80 1083.06 86.43Q1083.06 80.96 1079.89 77.69Q1076.72 74.43 1071.44 74.43L1059.15 74.43M1146.70 136.06L1108.50 136.06L1108.50 127.42L1122.80 127.42L1122.80 74.62L1108.50 74.62L1108.50 65.98L1146.70 65.98L1146.70 74.62L1132.40 74.62L1132.40 127.42L1146.70 127.42L1146.70 136.06M1185.97 137.02Q1176.27 137.02 1170.56 131.60Q1164.85 126.17 1164.85 116.67L1164.85 85.28Q1164.85 75.87 1170.56 70.44Q1176.27 65.02 1185.97 65.02Q1195.57 65.02 1201.28 70.49Q1206.99 75.96 1206.99 85.28L1197.49 85.28Q1197.49 79.61 1194.42 76.54Q1191.34 73.47 1185.97 73.47Q1180.50 73.47 1177.42 76.54Q1174.35 79.61 1174.35 85.28L1174.35 116.67Q1174.35 122.43 1177.42 125.50Q1180.50 128.57 1185.97 128.57Q1191.34 128.57 1194.42 125.50Q1197.49 122.43 1197.49 116.67L1206.99 116.67Q1206.99 126.08 1201.28 131.55Q1195.57 137.02 1185.97 137.02M1247.60 136.06L1238.10 136.06L1238.10 74.62L1219.09 74.62L1219.09 65.98L1266.51 65.98L1266.51 74.62L1247.60 74.62L1247.60 136.06M1289.55 136.06L1280.05 136.06L1280.05 65.98L1302.80 65.98Q1309.52 65.98 1314.42 68.57Q1319.31 71.16 1322 75.82Q1324.69 80.48 1324.69 86.91Q1324.69 93.24 1322 97.90Q1319.31 102.56 1314.37 105.15Q1309.42 107.74 1302.80 107.74L1289.55 107.74L1289.55 136.06M1289.55 74.43L1289.55 99.29L1302.80 99.29Q1308.37 99.29 1311.63 95.88Q1314.90 92.48 1314.90 86.91Q1314.90 81.24 1311.63 77.84Q1308.37 74.43 1302.80 74.43L1289.55 74.43M1359.34 136.06L1337.74 136.06L1337.74 65.98L1358 65.98Q1367.70 65.98 1373.31 70.83Q1378.93 75.68 1378.93 84.12Q1378.93 89.60 1375.52 93.87Q1372.11 98.14 1366.74 99.10L1366.74 99.39Q1370.77 99.87 1373.89 102.27Q1377.01 104.67 1378.78 108.36Q1380.56 112.06 1380.56 116.48Q1380.56 125.50 1374.85 130.78Q1369.14 136.06 1359.34 136.06M1347.06 74.33L1347.06 95.55L1357.90 95.55Q1363.28 95.55 1366.35 92.72Q1369.42 89.88 1369.42 84.99Q1369.42 80 1366.35 77.16Q1363.28 74.33 1358 74.33L1347.06 74.33M1347.06 103.61L1347.06 127.71L1358.48 127.71Q1364.34 127.71 1367.70 124.59Q1371.06 121.47 1371.06 116.09Q1371.06 110.52 1367.70 107.07Q1364.34 103.61 1358.48 103.61" fill="url(#paint2_linear_0_1)"/>
<g id="Group 1">
<rect id="Rectangle 1" x="26" y="168" width="12" height="184" rx="5" fill="url(#paint3_linear_0_1)" fill-opacity="0.9"/>
</g>
<g id="Group 1_2">
<rect id="Rectangle 2" x="26" y="38" width="12" height="119" rx="5" fill="url(#paint4_linear_0_1)" fill-opacity="0.9"/>
</g>
<ellipse id="Ellipse 1" cx="148.5" cy="573" rx="215.5" ry="214" fill="url(#paint5_linear_0_1)" fill-opacity="0.4"/>
<rect id="Rectangle 3" x="1229" y="48" width="300" height="300" rx="25" fill="#FFFBFB" fill-opacity="0.9"/>
<g id="placeholder-logo"><g transform="translate(1229,48) translate(0.0,60.0) scale(1.2000)"><g fill="#666666">
  <path d="m88.05,27.65c-3.15,4 -3.2,51.2 -0.05,54.35c2.75,2.75 71.7,3.15 74.45,0.45c2.85,-2.9 2.3,-53.85 -0.65,-55.9c-1.95,-1.35 -7.15,-1.55 -36.95,-1.55l-34.7,0l-2.1,2.65zm69.45,3.35c0.65,0 1,8.6 1,23.75l0,23.75l-33,0l-33,0l-0.25,-23c-0.15,-12.6 -0.1,-23.45 0.15,-24.1c0.35,-0.85 8.9,-1.05 32.25,-0.75c17.55,0.2 32.3,0.35 32.85,0.35z"/>
  <path d="m99.15,37.3c-6.85,7.35 4.25,17.35 11.4,10.25c1.35,-1.35 2.45,-3.65 2.45,-5.05c0,-6.45 -9.35,-9.95 -13.85,-5.2z"/>
  <path d="m135,42.5c-0.7,0.85 -5.25,5.15 -10.1,9.6l-8.85,8.1l-3.2,-3.2l-3.15,-3.15l-6.35,6.3c-5.55,5.5 -6.35,6.75 -6.35,10.05l0,3.8l28.5,0l28.5,0l0,-8.6l0,-8.55l-8.15,-7.7c-9.35,-8.85 -9.15,-8.7 -10.85,-6.65zm7.25,15.2c0.95,0.9 1.75,2.9 1.75,4.45c6.35,-5.05 4.75,-7.15 4.9,-11.55c0.95,0 0,0 0,0l-6.65,7.1z"/>
  <path d="m53.65,110.75c0.1,4.8 0.45,8.65 0.75,8.5c0.35,-0.15 1.3,-0.25 2.1,-0.25c1.1,0 1.5,-1.2 1.5,-4.75l0,-4.75l3.25,5c4.9,7.5 6.2,6.75 6.55,-3.75c0.25,-8.15 0.15,-8.75 -1.7,-8.75c-1.65,0 -2.05,0.8 -2.3,4.75l-0.3,4.75l-2.8,-4.75c-4.85,-8.25 -7.25,-6.9 -7.05,4z"/>
  <path d="m91,108.9c0,9.65 0.3,10.1 6.1,10.1c5.8,0 7.15,-2.65 1.65,-3.2l-3.25,-0.3l-0.3,-6.75c-0.25,-5.95 -0.55,-6.75 -2.25,-6.75c-1.75,0 -1.95,0.7 -1.95,6.9z"/>
  <path d="m151,102.45c0,0.25 1,2.15 2.25,4.2c1.2,2.1 2.45,5.8 2.75,8.25c0.65,5.9 4,6.95 4,1.25c0.05,-2.1 1.25,-5.85 2.95,-8.9l2.9,-5.25l-2.5,0c-1.8,0 -2.8,0.85 -3.75,3.1l-1.3,3.05l-1.25,-3.05c-1.1,-2.6 -6.05,-4.8 -6.05,-2.65z"/>
  <path d="m191,107.45c0,9.05 3.4,8.85 4.25,-0.2c0.45,-5 0.35,-5.25 -1.9,-5.25c-2.2,0 -2.35,0.4 -2.35,5.45z"/>
  <path d="m180.8,104.75c-1.3,5.35 0.65,13.6 3.45,14.35c2.3,0.6 2.75,0.4 2.75,-1.2c0,-1.05 -0.45,-1.9 -1,-1.9c-0.55,0 -1,-1.6 -1,-3.5c0,-1.95 0.45,-3.5 1,-3.5c0.55,0 1,-0.7 1,-1.5c0,-0.85 -0.45,-1.5 -1,-1.5c-0.55,0 -1,-0.7 -1,-1.5c0,-2.1 -3.65,-1.9 -4.2,0.25z"/>
  <path d="m71.55,106.55c-2.2,2.25 -2.05,9.7 0.3,11.8c4.5,4.1 10.15,0.75 10.15,-6.1c0,-4.85 -2,-7.25 -6,-7.25c-1.55,0 -3.55,0.7 -4.45,1.55zm6.25,5.8c0.25,3.05 0,3.65 -1.6,3.65c-2.3,0 -3.25,-2.65 -2.05,-5.85c1.25,-3.35 3.3,-2.1 3.65,2.2z"/>
  <path d="m105.75,106.1c-2.5,1.45 -2.45,9.95 0.1,12.25c4.3,3.9 10.15,0.35 10.15,-6.2c0,-6 -5.15,-9.05 -10.25,-6.05zm6.05,6.25c0.25,3.05 0,3.65 -1.6,3.65c-2.3,0 -3.25,-2.65 -2.05,-5.85c1.25,-3.35 3.3,-2.1 3.65,2.2z"/>
  <path d="m119.2,106.2c-3.8,3.8 -0.4,12.55 4.4,11.35c1.9,-0.45 2.45,-0.3 2.15,0.65c-0.25,0.7 -1.55,1.2 -2.85,1.1c-4.05,-0.3 -5.35,0.45 -3.85,2.25c0.85,1.05 2.6,1.45 5.35,1.25l4.1,-0.3l0.3,-8.75l0.3,-8.75l-4.35,0c-2.4,0 -4.9,0.55 -5.55,1.2zm6.6,4.45c0.4,2.85 -2.15,4.85 -3.75,2.95c-0.9,-1.1 -0.9,-2 -0.05,-3.6c1.35,-2.5 3.4,-2.15 3.8,0.65z"/>
  <path d="m133.55,106.55c-2.2,2.25 -2.05,9.7 0.3,11.8c4.5,4.1 10.15,0.75 10.15,-6.1c0,-4.85 -2,-7.25 -6,-7.25c-1.55,0 -3.55,0.7 -4.45,1.55zm6.25,5.8c0.25,3.05 0,3.65 -1.6,3.65c-2.3,0 -3.25,-2.65 -2.05,-5.85c1.25,-3.35 3.3,-2.1 3.65,2.2z"/>
  <path d="m167.65,106.85c-3.9,4.3 -0.75,13.15 4.7,13.15c2.4,0 5.65,-2.75 5.65,-4.85c0,-1.4 -2.65,-1.55 -3.5,-0.15c-0.95,1.55 -4.5,1.15 -4.5,-0.5c0,-1.1 1.1,-1.5 4,-1.5c3.15,0 4,-0.35 4,-1.8c0,-5.3 -6.85,-8.25 -10.35,-4.35z"/>
  <path d="m191,117.5c0,2.15 0.4,2.6 2.25,2.3c1.5,-0.2 2.25,-1 2.25,-2.3c0,-1.3 -0.75,-2.1 -2.25,-2.3c-1.85,-0.3 -2.25,0.15 -2.25,2.3z"/>
 </g></g></g>
</g>
<defs>
<linearGradient id="paint0_linear_0_1" x1="0" y1="198" x2="1584" y2="198" gradientUnits="userSpaceOnUse">
<stop stop-color="#3D052C"/>
<stop offset="1"/>
</linearGradient>
<linearGradient id="paint1_linear_0_1" x1="323" y1="-224" x2="323" y2="352" gradientUnits="userSpaceOnUse">
<stop stop-color="#28F6F2" stop-opacity="0.4"/>
<stop offset="1" stop-color="#17908E" stop-opacity="0.7"/>
</linearGradient>
<linearGradient id="paint2_linear_0_1" x1="148.5" y1="38" x2="148.5" y2="140" gradientUnits="userSpaceOnUse">
<stop stop-color="white"/>
<stop offset="1" stop-color="#999999"/>
</linearGradient>
<linearGradient id="paint3_linear_0_1" x1="38" y1="260" x2="26" y2="260" gradientUnits="userSpaceOnUse">
<stop stop-color="#D9D9D9"/>
<stop offset="1" stop-color="#737373"/>
</linearGradient>
<linearGradient id="paint4_linear_0_1" x1="38" y1="97.5" x2="26" y2="97.5" gradientUnits="userSpaceOnUse">
<stop stop-color="#D9D9D9"/>
<stop offset="1" stop-color="#737373"/>
</linearGradient>
<linearGradient id="paint5_linear_0_1" x1="27.5" y1="434.5" x2="148.5" y2="787" gradientUnits="userSpaceOnUse">
<stop stop-color="#2E21BC"/>
<stop offset="1" stop-color="#150F56"/>
</linearGradient>
<clipPath id="clip0_0_1">
<rect width="1584" height="396" fill="white"/>
</clipPath>
</defs>
</svg>
